<?xml version="1.0" standalone="no"?>
<!DOCTYPE svg PUBLIC "-//W3C//DTD SVG 1.1//EN" "http://www.w3.org/Graphics/SVG/1.1/DTD/svg11.dtd" >
<svg xmlns="http://www.w3.org/2000/svg">
<metadata></metadata>
<defs>
<font id="honest_johnsregular" horiz-adv-x="1054" >
<font-face units-per-em="2048" ascent="1638" descent="-410" />
<missing-glyph horiz-adv-x="512" />
<glyph horiz-adv-x="0" />
<glyph unicode="&#xd;" horiz-adv-x="512" />
<glyph unicode=" "  horiz-adv-x="512" />
<glyph unicode="&#x09;" horiz-adv-x="512" />
<glyph unicode="&#xa0;" horiz-adv-x="512" />
<glyph unicode="!" horiz-adv-x="419" d="M102 0v215h215v-215h-215zM102 307v830h215v-830h-215z" />
<glyph unicode="&#x22;" horiz-adv-x="778" d="M84 1100l307 301l-182 110zM391 1100l307 301l-182 110z" />
<glyph unicode="#" horiz-adv-x="3028" d="M10 735v92l6 13q-6 10 -6 30q0 12 4 38t4 38l-2 8l-4 4q4 43 4 103q0 57 -4 131q14 27 60 27q14 0 26 -9q49 10 56 11l16 -9q10 8 31 9q10 0 20 -11q0 -8 3 -22t3 -21l-8 -28q8 -12 8 -60v-87v-46q-2 -12 -2 -4l-6 -8v-8l6 -8v-7q2 -8 -4 -18l6 -19q23 0 39 -2q8 4 23 5 l6 -5q12 4 20 5q6 0 9 -3l12 7q31 -6 31 -56q0 -4 -9 -18l4 -14l-2 -11q7 -10 7 -30q0 -10 -2 -39q-8 -8 -33 -11l-43 -2l-6 7q-35 -4 -52 -5l-8 5q-43 -8 -37 -9q-68 0 -104 9q-10 -8 -43 -9l-12 4l-13 19q-2 4 -4 14zM37 874q0 -123 4 -139l8 -6q25 4 35 6q14 -6 35 -6 q43 0 53 6l16 -6q27 6 41 8l9 -6q31 2 47 4l6 -4q23 8 26 8q6 0 17 -2l6 4q0 8 -4 24.5t-4 25.5q0 6 3 18t3 18l-2 13l-4 4h-21l-4 -4q-16 0 -28 8q-45 -4 -72 2l-2 -6l-10 -2l-5 4l5 33q2 18 0 32l-5 7l-2 12q0 14 6.5 42.5t6.5 43.5q-4 10 -8 18q2 12 2 21l-5 4 q0 8 5.5 20.5t5.5 20.5q0 16 -13 28q0 4 4.5 15.5t4.5 15.5v25l-4 6q-10 0 -33 2t-33 2q-4 0 -11 -4t-10 -4q-4 0 -28 4q-14 2 -29 0l-6 -10v-47l8 -11v-10q0 -23 -5 -68t-5 -67l6 -21q0 -14 -5 -40.5t-5 -41.5zM424 956q10 12 10 31q0 61 25 103l10 2q2 18 24.5 39.5 t41.5 25.5q2 25 69 47q59 20 92 21q90 0 117 -27q53 -10 88 -51l6 -2q6 -8 19 -17l6 -20l16 -10q29 -55 31 -74l-4 -4q0 -10 6 -34t6 -36q0 -51 -20 -67q2 -29 -14.5 -58.5t-43.5 -36.5q-6 -18 -40.5 -43.5t-53.5 -25.5l-8 2q-29 -25 -92 -25q-45 0 -62 11l-2 -2 q-31 0 -92 24l-8 14q-25 6 -49 29q-4 6 -37 45l2 12q-12 18 -31 56l2 10q-12 41 -14 61zM455 942q0 -53 33.5 -103.5t82.5 -72.5q16 -39 160 -39q37 0 150 61q2 8 30.5 37t28.5 62v4q8 12 16 22q0 8 3.5 26t3.5 26q0 53 -35 114l-13 6q-61 111 -215 111q-49 0 -129 -35 q-12 -31 -43 -37q-12 -18 -30 -30q-2 -23 -22.5 -73t-20.5 -79zM612 963q0 6 4.5 16t4.5 16q0 14 -5 21q2 20 24 40.5t42 22.5l4 6q8 4 16 5q10 0 30 -12.5t22 -22.5l16 -6q12 -18 21 -27q0 -64 6 -84q-27 -66 -33 -74q-23 -31 -74 -30q-29 16 -43 22q-18 23 -24 27 q0 14 -5.5 39.5t-5.5 40.5zM639 958q0 -4 4 -14q6 -31 6 -47q8 -10 19 -27q4 0 13 -4t15 -4q-14 0 19 4q14 12 35 58q14 32 14 20q0 2 -2 6v54q-4 16 -27.5 34.5t-40.5 18.5l-4 -2q-20 -10 -28 -13q-4 -18 -17 -22q-4 14 -4 -47q0 -4 2 -6zM762 1614q0 86 41 153 q47 80 129 80q88 0 117 -118l24 -187q14 -10 49 -16q47 354 119 354l14 -10q-25 -55 -61 -172q-14 -72 -14 -123q0 -41 4 -59l28 4l11 -13l-11 -18l-22 -10q14 -47 41 -140q-8 -16 -34 -38.5t-42 -22.5q-43 0 -43 203q-16 4 -43 10q-35 -217 -104 -217q-59 0 -60 29l4 10 q43 109 76 196q-82 51 -82 78q0 29 31 37q12 -4 55 -41l2 59q2 49 -16 97q-23 59 -66 59q-53 0 -84 -61q-25 -49 -24 -109q0 -31 16 -65q18 -41 45 -41q6 0 18.5 5t18.5 5q18 0 19 -31q0 -39 -50 -39q-106 0 -106 152zM795 408q0 49 28.5 84.5t75.5 35.5q12 0 25 -2 q-4 66 -4 92q0 123 47 123q33 0 32 -24q0 -53 -2 -156.5t-2 -157.5q0 -70 17 -69l22 20l6 2l7 -6q0 -20 -17.5 -41.5t-38.5 -21.5q-12 0 -43 20q-45 -23 -69 -22q-84 0 -84 123zM862 420q0 -100 49 -101q17 1 17 15l-2 153q0 18 -15 19q-49 0 -49 -86zM1047 1108q0 61 2 76 q10 37 51 37l35 -9l12 9h14q31 0 43 -9q16 6 27 11q37 0 37 -41q0 -16 -6 -29q4 -45 4 -66l22 -4q6 0 27 4q6 76 6 62q0 8 -4 18q6 35 10 41q10 16 39 17l10 -6q14 4 31 4q18 0 37 -4l10 4l16 -4q10 4 21 4q16 0 33 -9q8 -12 8 -26q0 -12 -4 -37t-4 -37l6 -8q2 -98 -8 -123 q10 -27 10 -49q0 -104 -12 -119q12 -35 12 -78q0 -31 -47 -35q-4 -2 -76 -2q-12 0 -27 9l-16 -7q-49 2 -59 41v86q0 35 2 62l-13 10q-8 0 -30 -6q-6 -29 -6 -43q0 -6 3 -17.5t3 -17.5q0 -27 -6 -39q6 -37 8 -45q0 -35 -29 -35q-12 0 -27 4q-12 -6 -30 -6q-6 0 -31 11 q-23 -10 -53 -11q-16 0 -33 4q-14 27 -14 37q0 23 5 66t5 65q0 31 -2 93.5t-2 93.5q0 8 -5 26.5t-5 26.5zM1049 403q0 53 32.5 91t83.5 38q86 0 86 -98q0 -57 -41 -57q-43 0 -80 47q0 -102 60 -102q39 0 88 71q8 0 8 -16q0 -37 -44 -65.5t-83 -28.5q-111 0 -110 120z M1075 1178q0 -25 8 -37l-6 -37l2 -4q2 -127 11 -142q-6 -23 -5 -43q4 -35 7 -45q0 -23 -5.5 -64.5t-5.5 -64.5l6 -14l15 -2h119l14 4l2 14q0 8 -2 21.5t-2 21.5q8 14 8 23q0 8 -4 26.5t-4 26.5q0 -6 10 56q43 10 66 12l14 -8l12 2l4 -11q4 -33 -4 -94q4 -53 2 -80l6 -8l39 6 q12 -6 25 -6q8 0 22.5 2t22.5 2l6 -4q20 4 39 0l10 4q-12 45 -12 86q0 8 6 26.5t6 26.5q0 18 -6 56.5t-6 56.5q0 4 5 13.5t5 11.5q0 10 -4 28.5t-4 26.5l6 10q0 55 2 84l-2 31l-20 2l-8 -4q-25 2 -37 0l-8 6q-23 2 -60 -6l-10 6l-10 -4q-8 -66 -9 -117l5 -14q-8 0 -24.5 -3 t-25.5 -3q-8 0 -34 6q-4 -6 -15 -10l-6 8q4 72 -8 88q4 29 8 43l-6 4l-23 -12l-12 2l-10 10h-45l-62 -2l-6 -4zM1130 432q4 10 17 10q6 0 16.5 -9t16.5 -9q14 0 14 41t-29 41t-35 -74zM1239 1395q0 47 29.5 92t74.5 45q94 0 95 -31v-125q0 -29 6 -28q6 0 24 38l9 -4 q2 -6 4 -8q0 -29 -20.5 -58.5t-47.5 -29.5q-31 0 -37 23q-18 -25 -51 -25q-86 0 -86 111zM1288 336q0 33 37 33q-4 -14 -4 -27q0 -31 27 -31t26 43q0 55 -35 56q-6 -8 -22 -25q-12 4 -12 14q12 27 30 62q4 10 11 51q4 27 16 27h8q2 -16 10 -43l37 -58q16 -35 10 -65l19 30 q10 0 10 -8q0 -39 -32.5 -76.5t-71.5 -37.5q-23 0 -43.5 16t-20.5 39zM1311 1397q0 -76 35 -76q26 0 26 14v148q0 27 -12 26q-49 0 -49 -112zM1460 455q0 72 56 71q27 0 26 -57q0 -14 -3 -44t-3 -44q0 -39 10 -39q16 0 29 25q8 12 14 26q6 0 6 -10q0 -33 -23.5 -63.5 t-55.5 -30.5q-51 0 -52 102q0 10 -2 31.5t-2 32.5zM1470 582q0 51 39 51q27 0 27 -37q0 -51 -39 -51q-27 0 -27 37zM1483 1481q0 53 47 53q29 0 22 -64q31 63 58 64q32 0 32 -43q0 -18 -11 -43t-27 -25q-10 0 -25 35q-16 -23 -23 -104q-4 -61 -38 -62q-29 0 -31 49 q2 -35 2 70q0 12 -3 34.5t-3 35.5zM1591 1184q6 12 15 26q6 8 32 9q20 0 39 -7q16 8 43 9l21 -9l20 9q18 0 33 -21h6q23 -29 23 -43v-2l14 -6q18 -31 23 -43q16 -2 30 -21l4 5q-4 23 -4 38q0 14 4 25l-8 10q0 43 6 52.5t45 9.5q35 0 50 -8q8 4 18 6l8 -4q12 8 41 8 q8 0 21 -15q2 -37 2 -41l-2 -43l-4 -4q4 -10 6 -16q0 -37 -11 -78l7 -12q-2 -96 -9 -121l9 -43l-9 -59q8 -43 9 -68q-14 -23 -52 -22q-10 0 -22 6q-37 -8 -55 -9q-10 0 -29 25t-23 39q-35 20 -47 53q-18 14 -45 43q-8 -49 -8 -74l10 -24q-10 -39 -8 -57q-18 -6 -31 -7 q-6 0 -12 2q-6 -4 -12 -4q-8 0 -19 9l-18 -9h-72q-33 4 -33 50q0 20 9 40q-8 18 -9 41q0 27 11 60l-11 20q0 66 9 80l-7 12q6 16 7 82q0 29 -4 45l2 5l2 20q-12 8 -15 31zM1602 395q0 135 102 135q8 0 33 -12q31 10 53 10q18 0 18 -71v-23q-2 -20 -2 -33v-57q27 37 27 68 q16 -5 16 -19t-24 -71l-47 -109q-39 -70 -90 -70q-27 0 -48.5 22.5t-21.5 49.5q0 47 24 47q6 -4 11 -6l8 -47q6 -35 37 -35q41 0 41 100q0 8 -2 21v20q-27 -29 -54 -28q-82 0 -81 108zM1626 1176q10 -10 10 -103q-2 -16 -4 -43t4 -43l-6 -16q0 -14 4 -43t4 -43 q0 -16 -6 -58.5t-4 -64.5v-21l6 -8q14 -2 29 -2q-14 0 2 2h47h51q4 18 6 33l-8 16q2 10 6 23q-4 23 7 72l-11 4q4 14 13 24h6l14 -12q18 0 73.5 -56.5t57.5 -76.5q23 -20 29 -25q-10 0 4 2h35h39l6 8v9q0 6 -4 55l8 20q0 45 -8 64q12 47 12 213q0 -4 -6 24l8 25l-2 39l-10 2 l-21 -8q-23 8 -90 8q-6 -2 -8 -4v-21q6 -10 6 -38q0 -39 -8 -70q8 -16 8 -25l-2 -4l-2 -2l-14 2l-11 8l-2 9q-29 8 -57 41q-6 6 -43 55q4 37 -31 41q-12 -6 -24 -6q-12 12 -25 10h-10q-6 -10 -21 -10q-8 0 -23 4t-22 4l-12 -6v-8zM1649 1411q0 123 104 123q88 0 98 -107 q16 10 25 11q8 0 14 -4q0 -23 -41 -52q-20 -96 -108 -96q-45 0 -68.5 39t-23.5 86zM1669 395q0 -74 35 -73q29 -1 29 36v97q-4 43 -27 43q-37 0 -37 -103zM1724 1413q0 -100 33 -100q25 -1 25 73q0 125 -35 125q-23 0 -23 -98zM1858 414v35q0 84 40 83q33 0 33 -22 q0 -4 -2 -13.5t-2 -13.5q0 -6 2 -12q31 68 64 68q57 0 57 -78q0 -14 -2 -44t-2 -44q0 -20 10 -21l6 4q6 4 15 11q6 -9 8 -17q-27 -66 -76 -65q-31 0 -33 67q0 27 2 88q2 33 -14 37q-8 -10 -29 -110q-16 -78 -49 -78q-10 0 -16 4q-12 8 -12 121zM1898 1483q0 223 15 264 q8 23 43 22q12 0 22 -6q4 -10 4 -18q0 -59 -6 -175t-6 -175q0 -57 21 -58q12 0 20 27q6 -8 6 -18q0 -20 -19.5 -41t-39.5 -21q-59 0 -60 199zM2030 1411q0 49 28.5 85t75.5 36q12 0 25 -2q-4 66 -5 92q0 123 46 123q35 0 34 -25q0 -53 -3 -156.5t-3 -156.5q0 -70 19 -70 q-4 0 22 21l6 2l4 -6q0 -20 -16 -42t-37 -22q-12 0 -43 21q-45 -23 -69 -23q-84 0 -84 123zM2087 336q0 33 37 33q-4 -14 -4 -27q0 -31 26 -31q25 0 25 43q0 55 -33 56q-6 -8 -22 -25q-14 4 -15 14q47 88 47 131q0 8 13 9h8q2 -16 10 -43q55 -86 47 -123l19 30q10 0 10 -8 q0 -39 -33 -76.5t-72 -37.5q-25 0 -44 16t-19 39zM2095 1423q0 -100 51 -100q17 0 17 14l-2 154q-2 18 -15 18q-51 0 -51 -86zM2132 745q0 20 8 35q-6 18 -6 37q0 23 10 43q-6 12 -6 101q0 92 8 106q-6 23 -6 39q0 20 8 33q-6 10 -6 35q0 16 2 36q18 12 29 13q16 0 33 -13 l14 9q137 -8 170 -9q8 0 22.5 5.5t22.5 5.5q33 0 33 -23q0 -14 -8 -22q6 -12 6 -25q0 -12 -6 -27q6 -16 6 -26q0 -31 -66 -31q-86 0 -37 2q-23 0 -28 -18l4 -11l26 -6q10 0 35 4t39 2h4l15 -10q2 -10 2 -26l-9 -13q8 -20 9 -35q0 -37 -68 -36l-27 4q-14 2 -24 -4v-15l-8 -10 l10 -25h86q47 1 47 -28q0 -16 -8 -29q6 -14 6 -27q0 -12 -8 -22q4 -14 4 -27q0 -37 -49 -32l-6 4q-39 -6 -70 -7q-127 0 -182 -4l-15 9q-16 47 -16 38zM2161 748q4 -10 8 -19q8 0 21.5 3t21.5 3q188 0 223 -6l8 4q-2 23 -4 33l8 12v19q-8 6 -8 16q0 6 4 14.5t4 12.5 q-12 4 -64 3t-71 15l2 10q-8 14 -8 27v6q12 12 12 31l-4 12l8 6q8 -2 25 0q16 2 25 2q8 -2 16 -6q12 6 25 6l8 -4l10 4q0 6 -3 20.5t-3 20.5l4 13l-4 6q-4 0 -15 2h-16q-4 0 -13 -3t-16 -3q-4 0 -21 4t-24 2h-10l-4 6l6 16q-6 8 -6 19q0 4 6 12l-2 16l10 9q-8 0 2 2l115 6 l2 10q0 8 -4 16q6 12 6 29q-2 6 -8 23l4 8l-4 4q-8 0 -23.5 -4t-23.5 -4q-6 0 -18.5 4t-18.5 4q-12 0 -38.5 -3t-39.5 -3l-14 6q-10 2 -16 2q-4 0 -13.5 -4t-13.5 -4h-14l-15 8h-8l-6 -10q0 -8 4 -23.5t4 -21.5q0 -8 -5 -22.5t-5 -22.5q0 -4 4 -13.5t4 -13.5q0 -23 -5 -65 t-5 -64q0 -18 4 -31l-4 -16q0 -10 6 -31l-6 -35q0 -8 2 -23.5t2 -23.5q-10 -20 -10 -28zM2533 856q0 14 11 37q-4 16 -4 43q0 33 6 84l-9 14q8 57 11 84q-12 8 -13 37q0 63 35 64q10 -4 19 -9q12 10 24 11q68 0 82 -9q16 10 80 9l6 -7q8 0 24.5 3.5t24.5 3.5q49 0 66 -25 q20 4 57 -27l2 -14q49 -47 49 -68l-2 -14q14 -20 15 -45q0 -53 -21 -65q6 -47 -37 -66l-4 -8l-30 -8q14 -10 32 -15q16 16 27 17q12 0 29 -6l6 -13q0 -35 -6 -49q4 -12 4 -22q0 -20 -15 -33l15 -31q0 -33 -72 -33q-18 0 -31 11q-20 -10 -26 -11q-33 0 -131 82h-7l-4 -22 q2 -8 4 -25q4 -33 -28 -33q-27 0 -41 9q-12 -6 -29 -7q-16 0 -33 7q-18 -6 -41 -7q-14 0 -28 7l-13 18v8q0 14 5 92zM2562 858q0 -8 5 -24.5t5 -24.5q0 -12 -3 -34.5t-3 -35.5q0 -14 19 -14q12 0 30 14h11q12 -12 30 -12q6 0 15.5 4t15.5 4q2 0 10 -4t10 -4h15l4 6l2 8 q-8 16 -4 31q8 20 8 29v8l8 8l2 8l4 2l4 -4l-2 -16q10 2 43 -22.5t41 -26.5q12 -27 60 -33q12 8 24 8q6 0 19.5 -6t21.5 -6q12 0 27 6l2 6l-12 23l18 84v10l-6 2q-12 -10 -23 -16q-53 18 -79 30l-7 6v11q20 14 31 22q49 2 64 43q-2 8 -2 15q0 8 18 30q2 33 2 49l-16 17 l-2 12q0 8 6 19q-10 27 -39 45q-6 20 -23 28q-8 2 -37 6q-16 25 -112 25q-10 0 -30.5 -5t-31.5 -5q-12 0 -35.5 4t-35.5 4q-8 0 -24.5 -5t-24.5 -5l-11 2l-10 -10v-7q0 10 16 -55q-14 -20 -14 -45q0 -37 12 -45q0 -8 -7 -24.5t-7 -20.5l10 -92q-12 -14 -12 -27zM2720 995 q0 6 4 20.5t4 20.5v2q-8 10 -8 25q0 6 8 14l-4 6l4 7h6l6 -5q14 14 35 15q37 0 39 -21q16 -6 16 -22q0 -4 -2 -6l4 -7q0 -8 3.5 -23.5t3.5 -21.5q-6 -25 -13 -63q-31 -47 -57 -47q-6 4 -10 6q-14 -8 -25 -10l-8 2l-2 8l6 12q-2 18 -2 23q0 2 2 8v12q0 6 -5 21.5t-5 23.5z M2746 985q0 -4 13 -59l8 -6q35 6 35 41v16q0 2 4 9t4 11q-6 6 -6 21q0 55 -29 55l-25 -10l-2 -8l7 -6v-7q0 -10 -4.5 -29.5t-4.5 -27.5z" />
<glyph unicode="$" horiz-adv-x="794" d="M102 229l144 125q66 59 65 95q0 47 -82 104t-82 117q0 55 62 112l149 144h37l-90 250l193 -5l-88 -245h282q-225 -188 -225 -256q0 -43 86 -94.5t86 -108.5q0 -39 -39 -80l-151 -158h-39l88 -245l-193 -4l90 249h-293z" />
<glyph unicode="%" horiz-adv-x="1765" d="M102 840q0 137 96.5 233t233.5 96q135 0 232.5 -96t97.5 -233q0 -135 -97.5 -232.5t-232.5 -97.5q-137 0 -233.5 97.5t-96.5 232.5zM303 840q0 -53 38 -91t91 -38t91 37.5t38 91.5q0 53 -38 91t-91 38t-91 -38t-38 -91zM508 -68l555 1342l178 -74l-557 -1341zM1004 307 q0 137 96 233.5t233 96.5q135 0 232.5 -96.5t97.5 -233.5q0 -135 -97.5 -232.5t-232.5 -97.5q-137 0 -233 97.5t-96 232.5zM1204 307q0 -53 38 -91t91 -38t91 38t38 91t-38 91t-91 38t-91 -38t-38 -91z" />
<glyph unicode="&#x26;" horiz-adv-x="1296" d="M102 307q12 74 39 131q63 135 185 160v6q-178 20 -203 244q0 147 90 233q68 68 135 68q12 -2 520 0v-244h-368q-92 0 -94 -110q8 -86 94 -86h694v-232h-223v-475h-604q-236 0 -265 305zM387 350q61 -96 107 -96l237 -2v225h-233q-45 0 -75 -39t-36 -88zM971 2z" />
<glyph unicode="'" horiz-adv-x="143" d="M82 1100l307 301l-182 110z" />
<glyph unicode="(" horiz-adv-x="962" d="M205 498q0 319 121 561q100 203 342 446h381q-566 -464 -566 -956q0 -258 187 -535q133 -193 385 -424h-414q-205 229 -303 412q-133 246 -133 496z" />
<glyph unicode=")" horiz-adv-x="962" d="M205 -410h413q205 229 304 412q133 246 133 496q0 319 -121 561q-100 203 -342 446h-381q567 -464 567 -956q0 -258 -188 -535q-133 -193 -385 -424z" />
<glyph unicode="*" horiz-adv-x="1116" d="M102 406l295 143l-207 252l295 -142l70 320l72 -320l295 146l-205 -256l297 -137h-328l76 -320l-205 256l-201 -258l74 320z" />
<glyph unicode="," horiz-adv-x="176" d="M80 -129l307 301l-182 111z" />
<glyph unicode="-" horiz-adv-x="759" d="M164 266v295l432 250v-297z" />
<glyph unicode="." horiz-adv-x="378" d="M82 0v215h215v-215h-215z" />
<glyph unicode="/" horiz-adv-x="677" d="M-27 -68l555 1342l177 -74l-555 -1341z" />
<glyph unicode="0" horiz-adv-x="1130" d="M98 567q0 246 140.5 421t336.5 175q199 0 339.5 -175t140.5 -421q0 -248 -140.5 -423t-339.5 -175q-197 0 -337 175t-140 423zM352 567q0 -133 65.5 -227t157.5 -94q94 0 160 94t66 227q0 131 -65.5 225.5t-160.5 94.5q-92 0 -157.5 -94.5t-65.5 -225.5z" />
<glyph unicode="1" horiz-adv-x="516" d="M122 4h273v1145h-273v-1145z" />
<glyph unicode="2" horiz-adv-x="1019" d="M84 2l551 686q37 45 37 94q0 39 -27 78q-47 68 -129 68q-51 0 -92 -29q-68 -47 -68 -129q0 -49 29 -90l-260 154q27 166 164 262q102 70 227 69q207 0 324 -168q80 -115 80 -227q0 -115 -93 -231l-235 -295h356v-242h-864z" />
<glyph unicode="3" horiz-adv-x="954" d="M96 905v242h758v-252l-217 -213q221 -80 217 -375q-29 -305 -264 -305h-492v250l365 2q86 0 106 96q-53 127 -112 127q-88 0 -316 4l422 424h-467z" />
<glyph unicode="4" horiz-adv-x="1064" d="M98 492h498v-488h272v488h150v241h-150v416h-272v-416h-225v416h-273v-657z" />
<glyph unicode="5" horiz-adv-x="985" d="M102 2v250l396 2q94 0 127 96q-53 127 -111 127h-410l-2 672l768 -4v-242h-497v-194h139q407 -1 397 -402q-27 -305 -264 -305h-543z" />
<glyph unicode="6" horiz-adv-x="985" d="M92 397q-6 426 330 752h369q-72 -45 -138 -100q-152 -131 -233 -295q84 49 170 49q147 0 255.5 -124t108.5 -282q0 -178 -126 -305t-304 -127q-180 0 -306 127t-126 305zM338 397q0 -76 54 -130t132 -54q76 0 130.5 54t54.5 130t-54.5 130.5t-130.5 54.5 q-78 0 -132 -54.5t-54 -130.5z" />
<glyph unicode="7" horiz-adv-x="942" d="M74 905v242h766v-242l-355 -901h-292l356 901h-475z" />
<glyph unicode="8" horiz-adv-x="1097" d="M109 307q0 90 69.5 181.5t155.5 109.5v6q-86 10 -145.5 83t-59.5 161q0 104 59 196q66 104 166 105h400q98 0 166 -105q57 -92 57 -196q0 -88 -58.5 -161t-144.5 -83v-6q86 -18 154.5 -109.5t68.5 -181.5q0 -121 -69 -211q-76 -94 -195 -94h-360q-117 0 -190.5 92 t-73.5 213zM397 356q0 -102 103 -102h106q102 0 103 102q0 49 -30 85t-77 36q-109 0 -139 -10q-66 -23 -66 -111zM412 803q0 -94 94 -94h96q41 0 67.5 27.5t26.5 68.5q0 43 -26.5 71.5t-67.5 28.5h-96q-41 0 -67.5 -29.5t-26.5 -72.5z" />
<glyph unicode="9" horiz-adv-x="985" d="M92 750q0 178 126 304t304 126t305 -126t127 -304q6 -426 -329 -754h-371q74 45 137 100q154 133 236 297q-84 -49 -172 -49q-147 0 -255 124t-108 282zM338 750q0 -78 54 -132.5t130 -54.5q78 0 131.5 54.5t53.5 132.5q0 76 -53.5 130t-131.5 54q-76 0 -130 -54 t-54 -130z" />
<glyph unicode=":" horiz-adv-x="419" d="M102 0v215h215v-215h-215zM102 410v215h215v-215h-215z" />
<glyph unicode=";" horiz-adv-x="512" d="M103 -129l307 301l-182 111zM156 410v215h215v-215h-215z" />
<glyph unicode="=" horiz-adv-x="8144" d="M0 1323q0 -119 66 -205q74 -96 180 -96q113 0 186 106q59 84 60 195q0 182 -130 264q-57 35 -116 35q-78 0 -139.5 -52t-88.5 -130q-18 -57 -18 -117zM35 1323q0 98 55 174q62 84 156 84q115 0 178 -121q31 -63 31 -137q0 -98 -54 -174q-61 -84 -155 -84q-70 0 -123 48 t-74 118q-14 47 -14 92zM39 14v437h59v-62q43 72 105 72q66 0 96 -70q45 70 107 70q92 0 108 -88q6 -23 6 -68v-291h-63v305q0 74 -62 74q-86 0 -86 -119v-260h-61v301q0 80 -58 80q-43 0 -67.5 -40t-24.5 -85v-256h-59zM119 1325q0 -68 33 -119q37 -57 100 -57 q96 0 115 117h-41q-17 -70 -72 -70q-51 0 -74 59q-14 33 -14 72q0 82 43 113q18 14 41 14q66 0 74 -76h41q-8 80 -70 111q-23 10 -49 10q-72 0 -109 -78q-18 -41 -18 -96zM592 231q0 -160 92 -213q33 -18 74 -18q63 0 105 44t52 110h-59q-28 -88 -96 -88q-98 0 -103 139h263 q0 78 -7 108q-12 90 -77 129q-35 20 -76 21q-84 0 -129 -78q-39 -63 -39 -154zM657 266q11 133 103 133q94 0 98 -133h-201zM711 1022q10 143 86 213q43 29 127 92q51 43 51 107q0 111 -96 110q-91 0 -95 -145h-61v14q0 84 37 135q43 61 125 62q76 0 115.5 -50.5 t39.5 -125.5q0 -96 -79 -160q-59 -37 -156 -119q-18 -27 -27 -61h262v-72h-329zM991 14v437h60v-62q43 72 104 72q68 0 96 -70q45 70 107 70q92 0 110 -88q4 -23 5 -68v-291h-62v305q0 74 -63 74q-86 0 -86 -119v-260h-62v301q0 80 -57 80q-43 0 -67.5 -40t-24.5 -85v-256 h-60zM1094 1305q-1 -195 75 -263q37 -33 88 -32q168 0 168 305q0 209 -82 268q-35 27 -79 27q-170 0 -170 -305zM1159 1305q1 239 101 239q98 0 98 -231q0 -238 -98 -238q-100 0 -101 230zM1507 1305q0 -195 76 -263q37 -33 88 -32q166 0 166 305q0 209 -80 268 q-37 27 -82 27q-168 0 -168 -305zM1556 14h56v56q37 -70 106 -70q80 0 121 84q33 68 33 158q0 154 -84 202q-29 18 -64 19q-68 0 -108 -68v217h-60v-598zM1573 1305q0 239 100 239q98 0 99 -231q0 -238 -101 -238q-98 0 -98 230zM1612 231q0 166 104 166q94 0 94 -161 q0 -172 -98 -173q-100 0 -100 168zM1919 1305q0 -195 76 -263q37 -33 88 -32q168 0 168 305q0 209 -82 268q-35 27 -80 27q-170 0 -170 -305zM1925 231q0 -160 92 -213q33 -18 74 -18q63 0 105 44t53 110h-60q-26 -88 -96 -88q-98 0 -102 139h262q0 78 -4 108 q-14 90 -80 129q-33 20 -76 21q-84 0 -129 -78q-39 -63 -39 -154zM1987 1305q0 239 98 239t98 -231q0 -238 -98 -238t-98 230zM1991 266q10 133 102 133q94 0 98 -133h-200zM2327 14v437h57v-76q37 86 96 86q8 0 21 -2v-78q-16 2 -23 2q-59 0 -84 -61q-8 -20 -8 -60v-248 h-59zM2517 1022v600h66v-248h260v248h67v-600h-67v283h-260v-283h-66zM2533 152h58q6 -92 94 -93q86 0 86 72q0 43 -68 64l-55 14q-102 31 -102 121q0 59 36.5 96t96.5 37q133 0 139 -137h-59q-6 78 -82 77q-74 0 -74 -63q0 -43 61 -61l70 -21q94 -29 94 -113 q0 -68 -40 -106.5t-105 -38.5q-144 0 -150 152zM2902 14v90h70v-90h-70zM3013 1022v600h67v-528h248v-72h-315zM3062 129q0 -129 114 -129q72 0 125 72q6 -63 66 -64q12 0 33 6v52q-12 -2 -19 -3q-20 0 -20 25v252q0 49 -29 84q-35 39 -110 39q-109 0 -138 -88 q-6 -20 -6 -56h57q6 84 84 84q80 0 80 -75q0 -45 -30 -49l-101 -17q-43 -6 -69 -33q-37 -37 -37 -100zM3123 135q0 53 60 70q4 0 45 8l34 6q20 4 37 17v-70q0 -45 -33.5 -76t-78.5 -31q-63 0 -64 76zM3365 1241q0 -94 33 -151q29 -49 75 -70q25 -10 58 -10q88 0 131 75 q37 61 37 156q0 94 -37 156q-43 76 -131 76q-86 0 -129 -76q-37 -61 -37 -156zM3426 1241q0 166 105 166q106 0 106 -166t-106 -166q-104 0 -105 166zM3437 231q0 -94 34 -151q29 -49 74 -70q27 -10 59 -10q86 0 132 76q35 61 34 155q0 94 -36 156q-44 76 -130 76 q-88 0 -131 -76q-37 -61 -36 -156zM3498 231q0 168 106 168q104 0 105 -168q-1 -165 -105 -165q-106 0 -106 165zM3766 1022v602h62v-223q29 45 61 59q23 10 49 10q80 0 107 -69q14 -35 14 -98v-281h-61v276q0 76 -31 97q-18 10 -41 10q-98 0 -98 -143v-240h-62zM3842 14 v598h59v-598h-59zM4008 14v90h70v-90h-70zM4147 1022v438h58v-61q27 43 65 61q23 10 51 10q78 0 107 -69q12 -31 12 -98v-281h-61v276q0 104 -72 105q-74 0 -94 -88q-4 -18 -4 -53v-240h-62zM4162 221q0 100 34 160q47 80 127 80q129 0 142 -160h-60q-10 94 -82 94 q-100 0 -100 -172q0 -164 94 -164q74 1 88 107h60q-18 -166 -150 -166q-117 0 -145 135q-8 41 -8 86zM4504 231q0 -94 32 -151q29 -49 76 -70q27 -10 59 -10q86 0 132 76q35 61 34 155q0 94 -36 156q-44 76 -130 76q-88 0 -131 -76q-37 -61 -36 -156zM4512 1241 q0 -160 92 -213q33 -18 74 -18q63 0 105 44t52 107h-59q-26 -86 -96 -86q-98 0 -103 139h262q0 78 -4 107q-14 92 -80 131q-33 20 -73 21q-84 0 -131 -78q-39 -63 -39 -154zM4565 231q0 168 106 168q104 0 105 -168q-1 -165 -105 -165q-106 0 -106 165zM4577 1274 q11 133 103 133q94 0 98 -133h-201zM4907 14v437h59v-62q43 72 105 72q68 0 96 -70q45 70 107 70q92 0 108 -88q6 -23 6 -68v-291h-63v305q0 74 -62 74q-86 0 -86 -119v-260h-61v301q0 80 -57 80q-43 0 -68 -40t-25 -85v-256h-59zM4913 1022v438h57v-76q37 84 97 84 q8 0 20 -2v-75q-16 2 -22 2q-59 0 -84 -64q-8 -18 -8 -59v-248h-60zM5171 1313q0 -182 127 -266q61 -41 148 -41q94 0 174 51q23 14 49 39l-23 37q-90 -80 -194 -80q-109 0 -171.5 72.5t-62.5 185.5q0 170 117 243q57 37 131 37q131 0 180 -96q23 -47 23 -111 q0 -113 -57 -155q-20 -16 -41 -17q-31 0 -31 35q0 16 10 56l45 180h-49l-16 -70q-6 82 -80 82t-117 -98q-20 -51 -20 -109q0 -49 20 -84q25 -45 72 -45q66 0 98 86v-16q0 -66 63 -66q53 0 97 51q51 66 51 170q0 162 -119 224q-59 31 -133 30q-131 0 -211 -96t-80 -229z M5368 1284q0 106 57 154q18 14 37 14q51 0 51 -66q0 -104 -53 -159q-20 -20 -41 -21q-51 0 -51 78zM5431 14l158 598h49l-156 -598h-51zM5632 391v58h49v77q0 94 90 95q14 0 31 -3v-67q-16 2 -25 2q-37 0 -36 -51v-53h61v-58h-61v-377h-60v377h-49zM5818 1137 q0 -127 115 -127q72 0 127 69q6 -61 66 -61q12 0 32 6v51q-12 -4 -20 -4q-18 0 -19 27v250q0 51 -31.5 88t-107.5 37q-111 0 -137 -89q-6 -20 -8 -55h57q6 84 86 84t80 -76q0 -45 -31 -49l-100 -16q-45 -6 -72 -33q-37 -39 -37 -102zM5837 231q0 -94 33 -151q29 -49 75 -70 q27 -10 58 -10q88 0 131 76q37 61 37 155t-37 156q-43 76 -131 76q-86 0 -129 -76q-37 -61 -37 -156zM5882 1143q0 53 59 71q4 0 45 9l35 6q20 2 37 16v-69q0 -45 -35 -76t-80 -31q-61 0 -61 74zM5898 231q0 168 105 168q106 0 106 -168q0 -165 -106 -165q-104 0 -105 165z M6195 1241q0 -94 33 -151q29 -49 76 -70q25 -10 57 -10q88 0 131 75q37 61 37 156q0 94 -37 156q-43 76 -131 76q-86 0 -131 -76q-35 -61 -35 -156zM6240 14v437h56v-62q27 43 65 62q23 10 51 10q78 0 107 -70q12 -29 12 -98v-279h-61v275q0 106 -72 106q-74 0 -94 -90 q-4 -18 -4 -51v-240h-60zM6257 1241q0 166 104 166t105 -166q-1 -166 -105 -166t-104 166zM6584 391v60h47v120h62v-120h57v-60h-57v-287q0 -35 35 -34q10 0 22 2v-60q-18 -6 -43 -6q-76 0 -76 96v289h-47zM6599 1022v600h61v-600h-61zM6765 1022v90h69v-90h-69zM6810 14 v437h57v-62q27 43 65 62q23 10 52 10q76 0 106 -70q12 -29 12 -98v-279h-61v275q0 106 -72 106q-74 0 -94 -90q-4 -18 -4 -51v-240h-61zM6918 1231q0 98 37 160q47 80 127 79q127 0 139 -159h-57q-10 94 -82 94q-100 0 -100 -172q0 -164 94 -164q74 1 88 107h57 q-16 -166 -147 -166q-117 0 -146 135q-10 39 -10 86zM7174 231q0 -160 92 -213q33 -18 74 -18q63 0 105 44t53 110h-60q-26 -88 -96 -88q-98 0 -102 139h262q0 78 -4 108q-14 90 -80 129q-35 20 -76 21q-84 0 -129 -78q-39 -63 -39 -154zM7240 266q10 133 102 133 q94 0 98 -133h-200zM7262 1241q0 -94 33 -151q29 -49 76 -70q25 -10 57 -10q88 0 131 75q35 61 35 156q0 94 -35 156q-43 76 -131 76q-86 0 -131 -76q-35 -61 -35 -156zM7324 1241q0 166 104 166t105 -166q-1 -166 -105 -166t-104 166zM7576 14v437h57v-76q37 86 96 86 q8 0 21 -2v-78q-16 2 -23 2q-59 0 -84 -61q-8 -20 -8 -60v-248h-59zM7664 1022v438h59v-61q45 70 104 69q68 0 99 -67q45 68 104 67q92 0 111 -86q4 -25 4 -69v-291h-62v307q0 74 -61 74q-88 0 -88 -119v-262h-59v303q0 78 -58 78q-45 0 -68.5 -39t-23.5 -84v-258h-61z" />
<glyph unicode="?" horiz-adv-x="991" d="M102 834q27 166 164 262q102 70 228 69q207 0 325 -168q70 -102 70 -227q0 -207 -168 -326q-57 -33 -129 -43v-96h-215v281l110 2q133 2 160 119q6 25 6 53q0 57 -30 100q-47 68 -129 68q-49 0 -91 -29q-68 -47 -67 -129q0 -49 29 -90zM377 0v215h217v-215h-217z" />
<glyph unicode="A" horiz-adv-x="1474" d="M-23 -414l836 1938l764 -1938h-328l-92 256l-758 -2l-102 -254h-320zM481 78h609l-299 758z" />
<glyph unicode="B" horiz-adv-x="1511" d="M205 -410v1919l837 -2q86 0 207 -125q150 -156 150 -368v-6q0 -100 -29 -181q-59 -166 -221 -221v4q301 -102 301 -516q0 -127 -76 -272q-123 -231 -368 -232h-801zM496 -139h372q269 0 285 272q-41 326 -290 326h-3l-362 -4zM496 1245l2 -526l301 4q274 2 309 227 q0 86 -29 148q-68 147 -260 147h-323zM500 1247z" />
<glyph unicode="C" horiz-adv-x="962" d="M205 498q0 301 172 561q98 150 393 446h412q-305 -250 -441 -415q-227 -275 -227 -541q0 -250 238 -535q92 -106 436 -424h-445q-119 133 -239 267q-139 164 -209 299q-90 174 -90 342z" />
<glyph unicode="D" horiz-adv-x="1583" d="M205 -410v1919q57 0 170 2h172q438 0 735 -266q301 -272 301 -690q0 -397 -288.5 -680t-694.5 -283zM494 -143l106 -2q297 0 503 205.5t206 494.5t-206 490.5t-503 201.5h-106v-1390z" />
<glyph unicode="E" horiz-adv-x="1335" d="M205 121q0 170 97 290.5t267 163.5v11q-147 49 -237 162.5t-90 265.5q0 315 262 434q109 51 260 57h637v-260h-551q-123 0 -207 -65q-92 -72 -92 -191q0 -270 270 -270h4h410v-275l-385 -2q-131 0 -221 -96t-90 -227q0 -121 82 -189q75 -65 196 -65h4l580 -2v-273h-711 q-209 0 -350 162q-135 156 -135 369z" />
<glyph unicode="F" horiz-adv-x="1439" d="M205 489v297h284v723h1045v-278h-735v-445h581v-297h-581v-899h-310v899h-284z" />
<glyph unicode="G" horiz-adv-x="1480" d="M205 549q0 397 290.5 677.5t698.5 280.5q98 2 231 2v-276h-231q-293 0 -499 -201t-206 -483q0 -330 246 -529q198 -159 425 -159h24v522h309v-795h-363h-5q-374 0 -646 288q-274 290 -274 673z" />
<glyph unicode="H" horiz-adv-x="1605" d="M205 459v289h289v757h290v-757h461v757h291v-1915h-291v869h-461v-869h-290v869h-289z" />
<glyph unicode="I" horiz-adv-x="550" d="M205 -410v1915h276v-1915h-276z" />
<glyph unicode="J" horiz-adv-x="1060" d="M37 -289l190 293q0 -109 77 -186.5t185 -77.5q111 0 188 78t77 186v1507h276v-1507q0 -223 -157.5 -382t-383.5 -159q-139 0 -258.5 67t-193.5 181z" />
<glyph unicode="K" horiz-adv-x="1304" d="M205 -408v1913h291v-940l612 940h340l-643 -966l641 -953h-338l-612 920v-914h-291z" />
<glyph unicode="L" horiz-adv-x="667" d="M205 -408v1924h272v-1653h498v-273z" />
<glyph unicode="M" horiz-adv-x="1912" d="M78 -412v1463q0 197 126 328.5t324 131.5q283 0 377 -215q45 104 152 162q100 53 225 53q215 -2 334 -110q129 -119 129 -354l-2 -1459h-299v1416q0 193 -174 194q-121 0 -171 -56.5t-50 -178.5v-1375h-304v1375q0 225 -192 235h-13q-165 0 -165 -197v-1413h-297z" />
<glyph unicode="N" horiz-adv-x="1343" d="M205 -410v1915h295l2 -143q160 162 340 162q233 0 332 -121q88 -113 88 -367v-1446h-297v1344q0 178 -37 242q-44 75 -173 75h-16q-137 -4 -192 -88q-45 -68 -45 -202v-1371h-297z" />
<glyph unicode="O" horiz-adv-x="2199" d="M205 539q0 412 291.5 703.5t705.5 291.5t706 -292t292 -703q0 -414 -292 -706t-706 -292t-705.5 292t-291.5 706zM496 539q0 -293 206.5 -500t499.5 -207t499 207t206 500q0 291 -206 497.5t-499 206.5t-499.5 -207t-206.5 -497z" />
<glyph unicode="P" horiz-adv-x="1499" d="M205 -410v1915h749q276 0 420 -188q125 -162 125 -422q0 -227 -127 -381q-96 -113 -248 -176q-106 -43 -161 -43h-463v-705h-295zM500 582h358q362 0 363 319q-2 96 -37 166q-88 166 -340 166h-344v-651z" />
<glyph unicode="Q" horiz-adv-x="2222" d="M205 539q0 412 291.5 703.5t705.5 291.5t706 -292t292 -703q0 -328 -193 -590l215 -217l-207 -207l-215 215q-266 -199 -598 -199q-414 0 -705.5 292t-291.5 706zM496 539q0 -293 206.5 -500t499.5 -207q213 0 389 117l-157 155l208 209l154 -155q111 174 111 381 q0 291 -206 497.5t-499 206.5t-499.5 -207t-206.5 -497z" />
<glyph unicode="R" horiz-adv-x="1562" d="M205 -410v1915h801q176 0 301 -125q94 -92 151 -239q41 -109 41 -162q0 -162 -29 -254q-66 -207 -270 -287v-10q221 -59 316 -262q59 -131 59 -297q0 -32 -2 -57v-222h-277l-2 177q0 307 -215 448q-88 59 -213 80h-366v-705h-295zM500 571h307q403 0 403 330 q-12 96 -45 166q-78 166 -250 166h-415v-662z" />
<glyph unicode="S" horiz-adv-x="858" d="M10 -473l363 -6q96 147 291 448q102 164 102 305t-99.5 310.5t-99.5 249.5q0 70 41 149q16 31 86 131q86 133 267 395l-359 -2l-225 -338q-88 -133 -98 -151q-47 -88 -48 -172q0 -127 111 -307.5t111 -290.5q0 -57 -21 -96q0 -2 -55 -82z" />
<glyph unicode="T" horiz-adv-x="860" d="M37 1247v264h1028v-264h-367v-1657h-295v1657h-366z" />
<glyph unicode="U" horiz-adv-x="1343" d="M80 68v1445h297v-1343q0 -178 37 -242q44 -75 172 -75h16q137 4 193 88q47 68 47 202v1370h295v-1914h-295l-2 141q-160 -160 -340 -160q-233 0 -332 121q-88 111 -88 367z" />
<glyph unicode="V" horiz-adv-x="1488" d="M-14 1511h305l506 -1347l452 1347h307l-749 -2101z" />
<glyph unicode="W" horiz-adv-x="1886" d="M205 53v1458h301l-2 -1415q0 -192 174 -192h2h8q113 0 162 54q51 56 51 179v1374h301l2 -1374q0 -225 193 -235h13q165 0 165 196v1413h297v-1462q0 -197 -126 -329t-325 -132q-283 0 -377 215q-45 -104 -148 -159.5t-230 -55.5q-213 2 -332 111q-129 119 -129 354z" />
<glyph unicode="X" horiz-adv-x="1413" d="M12 1509h361l391 -671l391 671h361l-584 -960l6 -8l-2 -2h2l-4 -4l579 -945h-358l-391 658l-389 -658h-361l580 945l-2 4v2l4 8z" />
<glyph unicode="Y" horiz-adv-x="1290" d="M8 1511h342l400 -684l405 684h340l-588 -974v-947h-315l-4 963z" />
<glyph unicode="Z" horiz-adv-x="1347" d="M-18 -399l944 1630h-901v276h1425l-948 -1630h874v-276h-1394z" />
<glyph unicode="\" horiz-adv-x="677" d="M-27 1200l555 -1341l177 73l-555 1342z" />
<glyph unicode="_" horiz-adv-x="1585" d="M102 553q23 123 60 195l-17 6q27 72 66 98l12 -16q-31 -23 -51 -74q25 39 59 49q76 113 181 174q-51 -12 -95 -63l2 -2q-4 -4 -10 -9q-27 -25 -55 -65l-16 10q12 18 22 31q-16 -12 -31 -35l-18 10q14 23 31 39l-23 -12l-2 -2q-74 -55 -80 -166l-20 2q8 117 84 178v2h4 q4 55 117 103l2 6l4 -2q109 92 243 94q225 4 494 -178q111 -76 197 -208t116 -265q37 -51 47 -119l-20 -4q-10 68 -47 114q-51 238 -266 433q-70 61 -191 118q-113 51 -213 74q-72 14 -123 14q-115 -2 -229 -92q-23 -39 -60 -69q8 6 23 8q47 59 107 76q49 51 153 53 q127 2 268 -53q266 -100 404 -310q84 -127 115 -241q63 -88 71 -222h-20q-4 78 -35 150q16 -78 16 -137q2 -70 -16 -107l-19 11q16 33 15 94q0 70 -25 172q-25 111 -55 164q-45 76 -68 110q-41 61 -80 103q-111 117 -311 194q-137 53 -260 51q-94 -2 -139 -49q61 35 145 37 q152 2 314 -88h8q57 2 183 -101.5t222 -326.5q47 -111 49 -254q2 -57 -8 -113l-20 4q8 51 8 119q-4 182 -115.5 371.5t-271.5 267.5q143 -100 244.5 -266t126.5 -338l2 -4l-2 -2q4 -31 4 -57q2 -115 -66 -195q-39 -47 -57 -66q-35 -31 -72 -47q-57 -59 -119 -61 q-92 -2 -178 121q-55 80 -129 258t-98 217q12 -127 141 -377q123 -236 268 -231q86 0 181 86l14 -17q-43 -37 -80 -59q68 29 146 72l10 -19q-203 -113 -324 -115q-18 0 -33 2q-16 -4 -32 -4q-100 -2 -181.5 110t-95.5 136q-53 80 -78 146v8q0 31 -16 55q18 -123 78 -219 q94 -150 125 -180q78 -80 198 -78h50q39 2 94 31q84 43 188 73l10 4l7 -20l-11 -2q-104 -33 -184 -74q-61 -31 -104 -33h-24.5h-25.5q-166 -2 -280 172q-131 203 -146 349l-4 4l4 4q-43 129 -45 231q-2 68 17 121l18 -6q-14 -49 -14 -113q2 -100 43 -229q45 -37 43 -94 q57 -147 184 -293q74 -84 148 -82q18 0 34 4q12 -2 35 -2q31 0 70 10q-8 -2 -17 -2q-172 -2 -288 246q-137 291 -144 385q-2 14 -4 41l2 2q-6 27 -6 55q-2 123 82 144q27 4 78 16q-27 12 -47 12q-31 -2 -58 -22l-12 16q33 27 72 27q25 0 63 -19q127 -61 232 -229 q20 -33 88 -174q31 -61 86 -187q6 -14 8 -32q4 10 4 24t-4 29l-6 10l4 2q-10 41 -37 88q-4 8 -12 25q-12 35 -37 102q-111 260 -293 355q-59 31 -131 28q-143 -2 -143 -139h-21q0 158 158 160q82 2 145 -31q188 -96 301 -360q12 -37 39 -107q6 -8 15 -27q29 -53 36 -96 q10 -14 17 -14q8 0 8 22q-147 406 -274 508q-84 68 -115 84q-49 27 -139 41l4 21q92 -16 143 -43q33 -16 119 -86q133 -106 283 -523q-2 -47 -25 -47q-6 0 -14 6v-6q2 -72 -58 -71q-59 -2 -114 108q-117 227 -125 242q-106 193 -158 190h-4q-6 -25 -6 -45q0 -35 39 -96 q41 -68 178 -311q82 -152 164 -150q20 0 41 12q0 2 2 3q98 72 96 139q-2 82 -96 278q-92 188 -156 256q-127 129 -285 176q-12 -12 -84 -18q-80 -6 -131 -37q-76 -51 -114 -172l-21 6q68 203 277 226q23 0 57 8l-2 -2l2 -2l6 8q-10 -2 -22 -2q-8 0 -27 3t-25 3 q-49 0 -104 -23q-203 -80 -197 -395q2 -72 13 -125q31 -170 94 -332q88 -225 184 -268q8 -8 23 -6q14 0 32 6q23 -39 125 -35v-20l-10 -2q-70 -2 -108 20l2 -8q-23 -6 -45 -6q-45 0 -91 20l9 19q43 -18 82 -19q20 0 30 5l-2 2q-14 -2 -24 -2q-14 -2 -35 10q-37 23 -58 41 q-82 82 -151 268q-59 158 -78 303q-12 80 -12 129q-6 303 178 402q-213 -84 -209 -340q0 -29 6 -70q2 -25 4 -76q45 -432 281 -637l-12 -16q-182 154 -256 459q-27 113 -41 307q-2 -47 -2 -98q8 -416 237 -617l-12 -16q-141 125 -197 293q-45 133 -49 348q-4 303 100 442 q-72 -72 -110 -240q-33 -139 -31 -270q0 -49 6 -100l-20 -2q-6 53 -6 102q-2 115 26 250q33 156 88 235l-22 -32v-6h-6q-92 -150 -99 -351l-20 2q4 186 86 332q-57 -51 -88 -227zM127 854l37 64l2 -3l53 72l17 -12l-54 -72h-2l-35 -59zM156 954q43 74 88 74q10 0 18 -4 q141 117 297 119q59 0 113 -15q14 -4 41 -12q47 -10 143 -37q297 -111 465 -407q70 -4 123 -180l-21 -5q-37 123 -86 156q74 -133 86 -213l-20 -2q-12 84 -94 223q-4 4 -9 15q-76 135 -204.5 244.5t-274.5 158.5q-31 10 -114 27q-14 6 -39 14q-51 12 -109 12 q-61 -2 -160 -37q-109 -41 -133 -86v2l-22 -20l-15 14l15 13q-35 -2 -70 -64zM172 1026q201 131 268 137q43 10 131 19q70 2 156 -27q113 -37 154 -51q82 -33 143 -72q215 -135 428 -459l-16 -10q-276 418 -584 531q-43 14 -129 41.5t-152 25.5q-104 -2 -204 -47 q-61 -27 -183 -104zM184 395v68h21v-72q6 -327 131 -483l-14 -12q-131 156 -138 499zM229 915q41 23 68 56q-53 -29 -68 -56zM233 1104q49 43 78 45h11v-21q-31 0 -76 -41zM250 1165q98 59 166 62q31 0 49 -10l78 16l4 -21l-76 -16q-12 -31 -59 -33q-39 0 -80 -24l-10 16 q45 29 100 29q20 0 29 18q-14 6 -33 6q-59 -2 -158 -61zM266 1223q121 43 207 43q28 2 53 -4l-4 -19q-23 4 -47 4q-84 -2 -203 -45zM279 727q43 92 132 144.5t193 52.5h10v-9q27 -8 50 -8q22 1 32 11q-88 29 -159 26q-190 -2 -258 -217zM289 1272q61 31 145 33q35 -1 68 -5 l-4 -20q-33 4 -68 4q-74 -2 -133 -31zM305 870q111 115 270 119q41 0 152 -22q25 -4 72 -19q94 -37 224 -171t169 -228q49 -127 84 -197q-41 186 -162 346q-125 168 -291 244q-137 66 -256 64q-143 -4 -262 -136zM330 1370l98 14l4 -18q14 8 39 16l6 -20q-33 -8 -49 -23 q16 -6 27 -6q8 0 18 10l14 -16q-16 -12 -36 -14q-14 0 -37 10v-2l-6 2l-70 -16l-4 20l72 16q8 12 20 19l-92 -12zM332 518q0 66 6 123l20 -2q-8 -78 -8 -154q8 -397 230 -659q34 -41 57 -59l-12 -17q-141 121 -222 352q-68 199 -71 416zM336 -135l18 10q21 -39 82 -84 l-12 -16q-66 47 -88 90zM369 522q-2 100 49 205q16 35 20 41q14 25 33 33l10 -19q-25 -12 -49 -71l-8 2l6 -4q-43 -49 -41 -185q4 -176 60 -374q27 -92 100 -213q84 -137 153 -175q39 -23 125 -20q47 0 107 10l2 -20q-57 -10 -105 -11q-96 -2 -139 23q-74 43 -160 180 q-76 123 -102 219q-57 201 -61 379zM369 1395v20l20 2q340 8 733 -200q197 -107 338 -222l-14 -16q-211 178 -506 299q-315 127 -571 117zM371 1440v20q201 0 411 -61q328 -96 443 -201l6 -2q-43 51 -150 109q-236 129 -630 190l2 21q532 -82 766 -279q14 -14 47 -45l55 -6 q29 -14 82 -47l-12 -17q-23 16 -76 43l-21 4q41 -37 129 -96l-8 -18q-37 16 -158 119l-43 4q-57 55 -206 120q-127 53 -232 80q-233 61 -405 62zM408 494q-6 344 223 348h31l-3 -21h-22q-213 -4 -207 -321q0 -68 10 -135q27 -170 117 -353q115 -229 242 -239l-2 -21l-11 2 q-39 2 -96 47q-193 152 -270 559q-10 63 -12 134zM477 559q0 23 2 49l21 -2q-2 -23 -2 -45q6 -266 172 -498q-12 66 -99 250q-59 121 -61 254q-2 188 145 211l4 -20q-131 -20 -127 -189q2 -125 58 -247q104 -233 100 -283q43 -55 86 -111q51 -57 117 -82l-8 -18 q-70 27 -123 84q-45 59 -92 119h-2v2q-184 227 -191 526zM481 1532v20q211 -6 471 -114q225 -95 424 -238l-10 -16q-184 133 -422 231q-264 111 -463 117zM518 1335h17q47 2 112 -47q313 0 639 -287q2 0 6 3q59 0 142 -82l-15 -15q-68 68 -112 76q98 -90 161 -172l-14 -12 q-76 96 -172 180l-4 -2l-2 8q-322 276 -627 283l-2 -4l-6 4q-29 27 -109 20l-2 21q20 2 39 0q-27 10 -47 6zM518 1352l2 20q332 -55 586 -190q51 -27 158 -101q98 -67 157 -96l-8 -18q-47 20 -127 75q-53 49 -190 123q-250 133 -578 187zM537 965q61 2 155 -25t142 -59l4 2 l2 -4q70 -4 108 -74q20 -12 103 -107q70 -82 131 -225q10 -23 28 -70q6 -10 19 -32q41 -78 43 -142q0 -47 -21 -82q-10 -76 -98 -137q-10 -53 -84 -55q-98 -2 -238 221q14 -53 84 -131l-14 -14q-90 100 -92 157q0 10 2 21q-160 270 -162 369q-2 55 33 57q12 0 27 -6 q6 2 12 2q61 0 174 -189q70 -121 129 -256q43 -98 96 -96q-14 10 -26 31q-2 4 -64 117q-51 98 -156 288q-80 139 -174 138q-76 -2 -73 -76q0 -35 20 -80q102 -256 139 -328q121 -240 215 -260l-4 -20q-137 31 -284 393q-35 82 -101 246v2q-6 25 -6 47q-2 94 94 96 q104 2 193 -147q23 -41 156 -289q20 -39 63 -117q12 -18 23 -27q0 14 -9 35q0 2 -41 92q-92 203 -133 271q-94 156 -211 211q-12 -12 -45 -19q-25 -2 -49 -6q-70 -20 -67 -117q0 -35 12 -77q25 -23 108 -222q68 -162 111 -233q92 -152 184 -150q39 0 76 31h-12 q-84 -2 -144 88l17 10q53 -80 129 -77q20 0 41 6l6 10l6 -4q55 25 125 117q51 68 49 172q0 25 -2 49q-25 33 -61 123q-49 123 -51 127q-16 31 -74 110q-160 221 -309 279q-18 6 -68 16q-115 23 -148 21q-18 0 -38 -2zM541 1266h12q342 8 666 -260q162 -136 262 -281l-17 -12 q-152 225 -401 377q-268 162 -520 155zM555 1200l2 21q170 -4 324 -70q63 0 155 -49q201 -111 437 -418l-17 -12q-264 346 -479 436q256 -141 481 -483l-16 -11q-106 164 -252 304q-174 168 -324 217q-150 61 -311 65zM565 -330l4 21q37 -8 68 -8q27 0 59 10l4 -21 q-33 -8 -63 -10q-35 0 -72 8zM565 1567l2 20q174 -10 398 -106q190 -82 362 -203l-10 -16q-158 111 -359 198q-227 96 -393 107zM608 1608l4 18q369 -70 635 -248l-10 -16q-260 174 -629 246zM655 -369l127 11l2 -21l-127 -10zM670 586q0 -106 149 -353q158 -260 252 -258 q35 1 51 19q-14 -4 -28 -6q-109 -2 -205 200q-41 88 -154 269q-43 68 -43 108q0 20 6 45q-8 2 -14 2q-16 0 -14 -26zM696 893q178 -51 299 -182q137 -150 252 -518q4 16 4 32q-2 43 -21.5 86t-37.5 84q-6 18 -21 58q-55 137 -137 231q-29 37 -92 100l-2 -4q-92 37 -115 82 q-33 23 -108 49q-6 -12 -21 -18zM711 1628l4 21q160 -25 270 -101q92 -10 176 -80l-14 -16q-80 70 -170 78q-104 74 -266 98zM723 578l18 10l4 -8q109 -184 181 -308q27 -47 80 -139q51 -80 96 -80q47 2 96 70l16 -12q-53 -78 -108 -78q-61 -2 -117 90q-25 43 -76 131 q-72 123 -184 315zM745 -399h21q109 0 184 32l8 -18q-78 -35 -194 -35h-19v21zM791 -354q57 4 165 28l9 -18q-39 -16 -172 -31zM797 -303q250 10 456 147l13 -16q-205 -135 -469 -152v21zM834 211zM852 856q19 -22 68 -45q-29 37 -68 45zM862 922l8 -4zM870 918l4 -3h3z M969 -328q35 12 98 45l12 -18q-25 -16 -102 -45zM1090 -279l106 46l8 -21l-106 -43zM1161 -43q117 63 137 160l19 -4q-8 -39 -31 -76q18 14 43 74l21 -9q-29 -63 -56 -84l-12 15q-37 -55 -111 -94zM1208 -49q39 14 76 67l16 -10q-41 -61 -83 -78zM1409 422l18 6l17 -55 l-21 -4zM1444 541l20 6l17 -49l-21 -6z" />
<glyph unicode="`" d="M358 1436l148 153l227 -366z" />
<glyph unicode="a" d="M39 4l528 1249l484 -1249h-283l-49 139h-346l-54 -139h-280zM453 371h196l-96 278z" />
<glyph unicode="b" horiz-adv-x="1011" d="M96 4v1145h2h629q70 0 145 -68q100 -88 99 -233q-6 -66 -29 -113q-53 -117 -174 -131v-2q203 -51 203 -274v-21q-27 -303 -262 -303h-613zM369 268l221 2q82 0 98 84q-14 123 -102 123h-217v-209zM369 709h206q92 0 105 79q-14 102 -105 103l-206 -2v-180z" />
<glyph unicode="c" horiz-adv-x="788" d="M66 549q0 -143 102 -295q10 -16 199 -250h407q-123 129 -248 256q-139 160 -139 318q0 172 135 323q133 125 266 248h-395q-184 -199 -229 -268q-98 -152 -98 -332z" />
<glyph unicode="d" horiz-adv-x="991" d="M88 4v1145h170h160q238 0 405.5 -168t167.5 -403q0 -238 -168 -408t-405 -170q-53 0 -161 2t-169 2zM360 252q18 -4 58 -4q135 0 230 97t95 233q0 135 -95 230t-230 95q-59 0 -59 2h1v-653z" />
<glyph unicode="e" horiz-adv-x="925" d="M61 307q12 74 39 131q63 135 185 160v6q-178 20 -203 244q0 147 90 233q68 68 135 68q26 -1 166.5 -1t394.5 1v-244h-409q-92 0 -94 -110q8 -86 94 -86h325v-232h-327q-45 0 -75 -39t-36 -88q61 -96 107 -96l415 -2v-250h-542q-236 0 -265 305z" />
<glyph unicode="f" horiz-adv-x="1007" d="M74 492v241h151v416l768 -4v-242h-495v-170h413v-241h-413v-488h-273v488h-151z" />
<glyph unicode="g" horiz-adv-x="966" d="M72 578q0 238 168 404.5t405 166.5q103 1 158.5 1t64.5 -1v-246h-223q-135 0 -230.5 -96t-95.5 -229q0 -135 95.5 -232.5t228.5 -97.5v284h262v-530q-80 0 -260 -2q-238 0 -405.5 169t-167.5 409z" />
<glyph unicode="h" horiz-adv-x="1052" d="M92 492v241h152v416h270v-416h227v416h271v-1145h-271v488h-227v-488h-270v488h-152z" />
<glyph unicode="i" horiz-adv-x="466" d="M102 4h273v1145h-273v-1145z" />
<glyph unicode="j" horiz-adv-x="917" d="M70 -2l227 328q0 -266 131 -267q55 0 93 37t38 86v971h277v-971q0 -158 -120 -269.5t-288 -111.5q-221 0 -358 197z" />
<glyph unicode="k" horiz-adv-x="989" d="M80 4v1145h272v-524l332 524h303l-373 -578l373 -571h-303l-332 514v-510h-272z" />
<glyph unicode="l" horiz-adv-x="774" d="M76 4v1145h270v-905h449v-242z" />
<glyph unicode="m" horiz-adv-x="1275" d="M100 2h258v791q0 92 107 104q76 -18 76 -104v-791h241v780q0 92 92 113q90 -16 91 -96v-797h262v893q0 178 -150 233q-58 21 -137 21h-14q-68 -4 -119 -25q-123 -49 -137 -170h-13q-14 184 -278 195q-145 0 -223 -94q-55 -70 -56 -142q1 -64 1 -292t-1 -619z" />
<glyph unicode="n" horiz-adv-x="989" d="M98 4v1145h273v-115q98 125 301 125q254 -55 254 -289v-866h-262v750q0 151 -119 151h-2q-16 0 -29 -2q-143 -39 -143 -166v-733h-273z" />
<glyph unicode="o" horiz-adv-x="1230" d="M41 567q0 246 175 421t423 175q246 0 421 -175t175 -421q0 -248 -175 -423t-421 -175q-248 0 -423 175t-175 423zM317 567q0 -133 94.5 -227t227.5 -94q131 0 225 94t94 227q0 131 -94 225.5t-225 94.5q-133 0 -227.5 -94.5t-94.5 -225.5z" />
<glyph unicode="p" horiz-adv-x="899" d="M96 4v1145h549q170 0 246 -170q33 -72 43 -172q-4 -336 -279 -399h-286v-404h-273zM369 627h166q135 0 135 129q-10 127 -144 127h-157v-256z" />
<glyph unicode="q" horiz-adv-x="1302" d="M41 567q0 246 175 421t423 175q246 0 421 -175t175 -421q0 -190 -109 -344l105 -106l-150 -150l-106 107q-152 -104 -336 -105q-248 0 -423 175t-175 423zM317 567q0 -133 94.5 -227t227.5 -94h4q68 0 129 30l-92 93l149 151l97 -96q33 68 32 143q0 131 -94 225.5 t-225 94.5q-133 0 -227.5 -94.5t-94.5 -225.5z" />
<glyph unicode="r" horiz-adv-x="987" d="M96 4v1145h539q252 0 299 -342q-4 -78 -25 -137q-49 -143 -172 -166v-6q169 -60 181 -316v-178h-261v209q0 184 -176 195h-112v-404h-273zM369 627h166q135 0 135 129q0 127 -133 127h-168v-256z" />
<glyph unicode="s" horiz-adv-x="669" d="M61 4h347l151 260q39 68 39 133q0 94 -86 177t-86 157q0 109 225 418h-334l-149 -236q-61 -94 -62 -184q0 -96 82 -191.5t82 -172.5q0 -57 -65 -152z" />
<glyph unicode="t" horiz-adv-x="913" d="M70 905v242h819v-242h-275v-901h-270v901h-274z" />
<glyph unicode="u" horiz-adv-x="989" d="M94 283v866h260v-750q0 -151 121 -151h2q14 0 27 2q145 39 145 166v733h271v-1145h-271v115q-98 -125 -301 -125q-254 55 -254 289z" />
<glyph unicode="v" horiz-adv-x="1071" d="M39 1149l528 -1249l484 1249h-283l-211 -678l-238 678h-280z" />
<glyph unicode="w" horiz-adv-x="1275" d="M98 258q0 -178 152 -235q52 -20 124 -20q12 0 25 1q68 4 119 25q125 47 137 168h13q14 -182 278 -193h6q141 0 217 94q57 68 58 140q-3 86 -3 462q0 188 1 449h-258v-791q0 -90 -107 -104q-76 18 -76 104v791h-239l-2 -780q0 -90 -92 -111q-90 14 -91 96v795h-262v-891z " />
<glyph unicode="x" horiz-adv-x="1124" d="M59 0l332 571l-332 578h326l186 -350l187 350h325l-362 -578l373 -571h-326l-197 342l-186 -342h-326z" />
<glyph unicode="y" horiz-adv-x="1083" d="M53 1149h324l209 -330l207 330h325l-399 -619v-526h-270v533z" />
<glyph unicode="z" horiz-adv-x="1032" d="M72 2l520 901h-483v242h923l-516 -901h420v-242h-864z" />
<glyph unicode="|" horiz-adv-x="550" d="M109 -193h96v1491h-96v213h458v-213h-86v-1491h86v-215h-458v215z" />
<glyph unicode="&#xa1;" horiz-adv-x="419" d="M102 0v829h215v-829h-215zM102 922v215h215v-215h-215z" />
<glyph unicode="&#xa2;" horiz-adv-x="927" d="M102 559q0 115 99 213q45 43 227 172h92l-84 232l191 -5l-80 -227h278l-266 -160q-137 -96 -137 -206q0 -102 141 -203q125 -82 248 -164h-264l80 -227l-191 -4l82 231h-115q-190 150 -200 160q-100 96 -101 188z" />
<glyph unicode="&#xa3;" horiz-adv-x="1044" d="M102 0v221q147 25 146 252h-142v191h142v245q0 127 127 219q113 80 246 86l176 -204q-2 0 -105 -2q-182 -4 -182 -181v-163h274v-191h-274v-229h432v-242z" />
<glyph unicode="&#xa4;" horiz-adv-x="1181" d="M102 365l146 143h110q-4 31 -2 72h-250l142 143h133q31 111 119 223q33 41 182 203h397q-109 -98 -217 -197q-123 -119 -162 -229h297l-143 -143h-178v-2q0 -35 6 -70h315l-145 -143h-113q45 -78 156 -187q135 -133 170 -174h-408q-72 86 -143 172q-82 102 -119 189h-293 z" />
<glyph unicode="&#xa5;" horiz-adv-x="1269" d="M102 1149h326l207 -330l207 330h325l-389 -604h174v-117h-184v-78h184v-117h-184v-229h-270v229h-193v117h193v78h-193v117h187z" />
<glyph unicode="&#xa8;" d="M315 1358q0 43 29 71.5t72 28.5q41 0 70.5 -28.5t29.5 -71.5q0 -41 -29.5 -71t-70.5 -30q-43 0 -72 30t-29 71zM623 1358q0 43 28.5 71.5t71.5 28.5q41 0 70.5 -28.5t29.5 -71.5q0 -41 -29.5 -71t-70.5 -30q-43 0 -71.5 30t-28.5 71z" />
<glyph unicode="&#xa9;" horiz-adv-x="677" d="M280 -68l555 1342l177 -74l-555 -1341zM913 238v389h176v-227h92v227h176v-227h76v-162h-76v-244h-176v244h-268z" />
<glyph unicode="&#xab;" horiz-adv-x="1234" d="M102 598l519 403l-181 -405l178 -401zM614 598l519 403l-181 -405l178 -401z" />
<glyph unicode="&#xad;" horiz-adv-x="759" d="M164 266v295l432 250v-297z" />
<glyph unicode="&#xae;" horiz-adv-x="677" d="M280 -68l555 1342l177 -74l-555 -1341z" />
<glyph unicode="&#xb2;" horiz-adv-x="768" d="M258 549l244 305l-205 121q16 86 73.5 142.5t143.5 56.5q88 0 155.5 -65t67.5 -153q0 -63 -49 -133q-45 -57 -92 -112h156v-162h-494zM467 969q0 -39 41 -107q68 82 67 101q0 49 -61 49q-47 0 -47 -43z" />
<glyph unicode="&#xb3;" horiz-adv-x="714" d="M270 543v155h199q29 0 37 33q-8 49 -39 49q-45 0 -195 2l209 211h-211v152h410v-148l-96 -94q98 -51 96 -194q-16 -166 -148 -166h-262z" />
<glyph unicode="&#xb4;" d="M358 1223l375 213l-145 153z" />
<glyph unicode="&#xb7;" horiz-adv-x="378" d="M82 492v215h215v-215h-215z" />
<glyph unicode="&#xb9;" horiz-adv-x="387" d="M160 516v633h196v-633h-196z" />
<glyph unicode="&#xbb;" horiz-adv-x="1234" d="M49 195l519 403l-519 403l181 -405zM561 195l519 403l-519 403l181 -405z" />
<glyph unicode="&#xbc;" horiz-adv-x="677" d="M280 -68l555 1342l177 -74l-555 -1341zM913 238v389h176v-227h92v227h176v-227h76v-162h-76v-244h-176v244h-268z" />
<glyph unicode="&#xbd;" horiz-adv-x="677" d="M280 -68l555 1342l177 -74l-555 -1341z" />
<glyph unicode="&#xbe;" horiz-adv-x="677" d="M280 -68l555 1342l177 -74l-555 -1341zM913 238v389h176v-227h92v227h176v-227h76v-162h-76v-244h-176v244h-268z" />
<glyph unicode="&#xbf;" horiz-adv-x="991" d="M102 397q0 207 170 324q57 33 127 45v96h215v-280l-110 -2q-131 -2 -158 -119q-8 -25 -8 -53q0 -57 31 -103q47 -68 131 -67q49 0 90 28q68 47 67 131q0 49 -28 90l260 -153q-25 -166 -164 -262q-102 -72 -225 -72q-207 0 -326 170q-72 102 -72 227zM399 952v213h215 v-213h-215z" />
<glyph unicode="&#xc0;" horiz-adv-x="1474" d="M-23 -414l836 1938l764 -1938h-328l-92 256l-758 -2l-102 -254h-320zM481 78h609l-299 758z" />
<glyph unicode="&#xc1;" horiz-adv-x="1474" d="M-23 -414l836 1938l764 -1938h-328l-92 256l-758 -2l-102 -254h-320zM481 78h609l-299 758z" />
<glyph unicode="&#xc2;" horiz-adv-x="1474" d="M-23 -414l836 1938l764 -1938h-328l-92 256l-758 -2l-102 -254h-320zM481 78h609l-299 758z" />
<glyph unicode="&#xc3;" horiz-adv-x="1474" d="M-23 -414l836 1938l764 -1938h-328l-92 256l-758 -2l-102 -254h-320zM481 78h609l-299 758z" />
<glyph unicode="&#xc4;" horiz-adv-x="1474" d="M-23 -414l836 1938l764 -1938h-328l-92 256l-758 -2l-102 -254h-320zM481 78h609l-299 758z" />
<glyph unicode="&#xc5;" horiz-adv-x="1474" d="M-23 -414l836 1938l764 -1938h-328l-92 256l-758 -2l-102 -254h-320zM481 78h609l-299 758z" />
<glyph unicode="&#xc6;" horiz-adv-x="1878" d="M-82 438v289h287v289q0 242 109.5 366.5t312.5 126.5l1317 4v-270h-703v-516h516v-289h-516l-2 -571l705 -4v-273h-977v848h-463v-848h-299v848h-287zM504 727h463v520h-240q-141 0 -186 -67q-37 -57 -37 -230v-223z" />
<glyph unicode="&#xc7;" horiz-adv-x="962" d="M205 498q0 301 172 561q98 150 393 446h412q-305 -250 -441 -415q-227 -274 -227 -541q0 -250 238 -535q92 -106 436 -424h-160l2 -2l-407 -399l122 401h-2q-119 133 -239 267q-139 164 -209 299q-90 174 -90 342z" />
<glyph unicode="&#xc8;" horiz-adv-x="1335" d="M205 121q0 170 97 290.5t267 163.5v11q-147 49 -237 162.5t-90 265.5q0 315 262 434q109 51 260 57h637v-260h-551q-123 0 -207 -65q-92 -72 -92 -191q0 -272 274 -270h410v-275l-385 -2q-131 0 -221 -96t-90 -227q0 -121 82 -189q76 -66 200 -65l580 -2v-273h-711 q-209 0 -350 162q-135 156 -135 369z" />
<glyph unicode="&#xc9;" horiz-adv-x="1335" d="M205 121q0 170 97 290.5t267 163.5v11q-147 49 -237 162.5t-90 265.5q0 315 262 434q109 51 260 57h637v-260h-551q-123 0 -207 -65q-92 -72 -92 -191q0 -272 274 -270h410v-275l-385 -2q-131 0 -221 -96t-90 -227q0 -121 82 -189q76 -66 200 -65l580 -2v-273h-711 q-209 0 -350 162q-135 156 -135 369z" />
<glyph unicode="&#xca;" horiz-adv-x="1335" d="M205 121q0 170 97 290.5t267 163.5v11q-147 49 -237 162.5t-90 265.5q0 315 262 434q109 51 260 57h637v-260h-551q-123 0 -207 -65q-92 -72 -92 -191q0 -272 274 -270h410v-275l-385 -2q-131 0 -221 -96t-90 -227q0 -121 82 -189q76 -66 200 -65l580 -2v-273h-711 q-209 0 -350 162q-135 156 -135 369z" />
<glyph unicode="&#xcb;" horiz-adv-x="1335" d="M205 121q0 170 97 290.5t267 163.5v11q-147 49 -237 162.5t-90 265.5q0 315 262 434q109 51 260 57h637v-260h-551q-123 0 -207 -65q-92 -72 -92 -191q0 -272 274 -270h410v-275l-385 -2q-131 0 -221 -96t-90 -227q0 -121 82 -189q76 -66 200 -65l580 -2v-273h-711 q-209 0 -350 162q-135 156 -135 369z" />
<glyph unicode="&#xcc;" horiz-adv-x="550" d="M205 -410v1915h276v-1915h-276z" />
<glyph unicode="&#xcd;" horiz-adv-x="550" d="M205 -410v1915h276v-1915h-276z" />
<glyph unicode="&#xce;" horiz-adv-x="550" d="M205 -410v1915h276v-1915h-276z" />
<glyph unicode="&#xcf;" horiz-adv-x="550" d="M205 -410v1915h276v-1915h-276z" />
<glyph unicode="&#xd0;" horiz-adv-x="1583" d="M61 451v256h144v802q57 0 170 2h172q438 0 735 -266q301 -272 301 -690q0 -397 -288.5 -680t-694.5 -283l-395 -2v861h-144zM494 -143l106 -2q297 0 503 205.5t206 494.5t-206 490.5t-503 201.5h-106v-540h141v-256h-141v-594z" />
<glyph unicode="&#xd1;" horiz-adv-x="1343" d="M205 -410v1710h295l2 -143q160 162 340 162q233 0 332 -121q88 -113 88 -367v-1241h-297v1139q0 178 -37 242q-47 80 -189 76q-137 -4 -192 -89q-45 -68 -45 -202v-1166h-297zM367 1415l190 191h573l-190 -191h-573z" />
<glyph unicode="&#xd2;" horiz-adv-x="2199" d="M205 539q0 412 291.5 703.5t705.5 291.5t706 -292t292 -703q0 -414 -292 -706t-706 -292t-705.5 292t-291.5 706zM496 539q0 -293 206.5 -500t499.5 -207t499 207t206 500q0 291 -206 497.5t-499 206.5t-499.5 -207t-206.5 -497z" />
<glyph unicode="&#xd3;" horiz-adv-x="2199" d="M205 539q0 412 291.5 703.5t705.5 291.5t706 -292t292 -703q0 -414 -292 -706t-706 -292t-705.5 292t-291.5 706zM496 539q0 -293 206.5 -500t499.5 -207t499 207t206 500q0 291 -206 497.5t-499 206.5t-499.5 -207t-206.5 -497z" />
<glyph unicode="&#xd4;" horiz-adv-x="2199" d="M205 539q0 412 291.5 703.5t705.5 291.5t706 -292t292 -703q0 -414 -292 -706t-706 -292t-705.5 292t-291.5 706zM496 539q0 -293 206.5 -500t499.5 -207t499 207t206 500q0 291 -206 497.5t-499 206.5t-499.5 -207t-206.5 -497z" />
<glyph unicode="&#xd5;" horiz-adv-x="2199" d="M205 539q0 412 291.5 703.5t705.5 291.5t706 -292t292 -703q0 -414 -292 -706t-706 -292t-705.5 292t-291.5 706zM496 539q0 -293 206.5 -500t499.5 -207t499 207t206 500q0 291 -206 497.5t-499 206.5t-499.5 -207t-206.5 -497z" />
<glyph unicode="&#xd6;" horiz-adv-x="2199" d="M205 539q0 412 291.5 703.5t705.5 291.5t706 -292t292 -703q0 -414 -292 -706t-706 -292t-705.5 292t-291.5 706zM496 539q0 -293 206.5 -500t499.5 -207t499 207t206 500q0 291 -206 497.5t-499 206.5t-499.5 -207t-206.5 -497z" />
<glyph unicode="&#xd8;" horiz-adv-x="2222" d="M205 -268l217 217q-195 262 -195 590q0 412 293 703.5t705 291.5q334 0 598 -199l215 215l209 -207l-217 -215q193 -264 192 -589q0 -414 -292 -706t-705 -292q-332 0 -598 199l-215 -215zM520 532q2 -206 115 -378l977 976q-178 115 -393 113q-291 -2 -496 -211 t-203 -500zM842 -55q178 -115 389 -113q293 2 497.5 211t202.5 502q-2 205 -114 379q0 -2 -975 -979z" />
<glyph unicode="&#xd9;" horiz-adv-x="1343" d="M80 68v1445h297v-1343q0 -178 37 -242q47 -80 188 -75q137 4 193 88q47 68 47 202v1370h295v-1914h-295l-2 141q-160 -160 -340 -160q-233 0 -332 121q-88 111 -88 367z" />
<glyph unicode="&#xda;" horiz-adv-x="1343" d="M80 68v1445h297v-1343q0 -178 37 -242q47 -80 188 -75q137 4 193 88q47 68 47 202v1370h295v-1914h-295l-2 141q-160 -160 -340 -160q-233 0 -332 121q-88 111 -88 367z" />
<glyph unicode="&#xdb;" horiz-adv-x="1343" d="M80 68v1445h297v-1343q0 -178 37 -242q47 -80 188 -75q137 4 193 88q47 68 47 202v1370h295v-1914h-295l-2 141q-160 -160 -340 -160q-233 0 -332 121q-88 111 -88 367z" />
<glyph unicode="&#xdc;" horiz-adv-x="1343" d="M80 68v1445h297v-1343q0 -178 37 -242q47 -80 188 -75q137 4 193 88q47 68 47 202v1370h295v-1914h-295l-2 141q-160 -160 -340 -160q-233 0 -332 121q-88 111 -88 367z" />
<glyph unicode="&#xdd;" horiz-adv-x="1290" d="M8 1511h342l400 -684l405 684h340l-588 -974v-947h-315l-4 963z" />
<glyph unicode="&#xde;" horiz-adv-x="1499" d="M205 -410v1915h289v-348h460q276 0 420 -188q125 -162 125 -422q0 -227 -127 -381q-96 -113 -248 -176q-106 -43 -161 -43h-463v-357h-295zM500 233h358q362 0 363 320q-2 96 -37 166q-88 166 -340 166h-344v-652z" />
<glyph unicode="&#xdf;" horiz-adv-x="1243" d="M61 4h347l151 260q39 68 39 133q0 94 -86 177t-86 157q0 109 225 418h-334l-149 -236q-61 -94 -62 -184q0 -96 82 -191.5t82 -172.5q0 -57 -65 -152zM634 4h347l151 260q39 68 39 133q0 94 -86 177t-86 157q0 109 225 418h-334l-149 -236q-61 -94 -62 -184 q0 -96 82 -191.5t82 -172.5q0 -57 -65 -152z" />
<glyph unicode="&#xe0;" d="M39 4l528 1249l484 -1249h-283l-49 139h-346l-54 -139h-280zM358 1436l148 153l227 -366zM453 371h196l-96 278z" />
<glyph unicode="&#xe1;" d="M39 4l528 1249l484 -1249h-283l-49 139h-346l-54 -139h-280zM358 1223l375 213l-145 153zM453 371h196l-96 278z" />
<glyph unicode="&#xe2;" d="M39 4l528 1249l484 -1249h-283l-49 139h-346l-54 -139h-280zM303 1245l269 344l268 -346l-268 121zM453 371h196l-96 278z" />
<glyph unicode="&#xe3;" d="M39 4l528 1249l484 -1249h-283l-49 139h-346l-54 -139h-280zM297 1307l143 143h432l-143 -143h-432zM453 371h196l-96 278z" />
<glyph unicode="&#xe4;" d="M39 4l528 1249l484 -1249h-283l-49 139h-346l-54 -139h-280zM315 1358q0 43 29 71.5t72 28.5q41 0 70.5 -28.5t29.5 -71.5q0 -41 -29.5 -71t-70.5 -30q-43 0 -72 30t-29 71zM453 371h196l-96 278zM623 1358q0 43 28.5 71.5t71.5 28.5q41 0 70.5 -28.5t29.5 -71.5 q0 -41 -29.5 -71t-70.5 -30q-43 0 -71.5 30t-28.5 71z" />
<glyph unicode="&#xe5;" d="M39 4l528 1249l484 -1249h-283l-49 139h-346l-54 -139h-280zM406 1358q0 68 47 114t112 46q66 0 113 -46.5t47 -113.5q0 -66 -47 -113t-113 -47t-112.5 47t-46.5 113zM453 371h196l-96 278zM496 1358q0 -29 20.5 -49.5t48.5 -20.5q29 0 49.5 20.5t20.5 49.5t-20.5 49 t-49.5 20t-49 -20.5t-20 -48.5z" />
<glyph unicode="&#xe6;" horiz-adv-x="1523" d="M-35 469v242h154v149q0 233 254 289h1091v-240h-518v-198h432v-242h-432v-225h518v-242l-790 -2v469h-293v-465h-262v465h-154zM381 711h293v202h-144q-150 4 -149 -151v-51z" />
<glyph unicode="&#xe7;" horiz-adv-x="788" d="M66 549q0 180 98 332q45 70 229 268h395q-133 -123 -266 -248q-135 -152 -135 -323q0 -158 139 -318q125 -127 248 -256h-188l-301 -297l90 297h-8q-188 233 -199 250q-102 152 -102 295z" />
<glyph unicode="&#xe8;" horiz-adv-x="925" d="M61 307q12 74 39 131q63 135 185 160v6q-178 20 -203 244q0 147 90 233q68 68 135 68q53 -2 561 0v-244h-409q-92 0 -94 -110q8 -86 94 -86h325v-232h-327q-45 0 -75 -39t-36 -88q61 -96 107 -96l415 -2v-250h-542q-236 0 -265 305zM358 1436l148 153l227 -366z" />
<glyph unicode="&#xe9;" horiz-adv-x="925" d="M61 307q12 74 39 131q63 135 185 160v6q-178 20 -203 244q0 147 90 233q68 68 135 68q53 -2 561 0v-244h-409q-92 0 -94 -110q8 -86 94 -86h325v-232h-327q-45 0 -75 -39t-36 -88q61 -96 107 -96l415 -2v-250h-542q-236 0 -265 305zM358 1223l375 213l-145 153z" />
<glyph unicode="&#xea;" horiz-adv-x="925" d="M61 307q12 74 39 131q63 135 185 160v6q-178 20 -203 244q0 147 90 233q68 68 135 68q53 -2 561 0v-244h-409q-92 0 -94 -110q8 -86 94 -86h325v-232h-327q-45 0 -75 -39t-36 -88q61 -96 107 -96l415 -2v-250h-542q-236 0 -265 305zM231 1245l269 344l268 -346l-268 121z " />
<glyph unicode="&#xeb;" horiz-adv-x="925" d="M61 307q12 74 39 131q63 135 185 160v6q-178 20 -203 244q0 147 90 233q68 68 135 68q53 -2 561 0v-244h-409q-92 0 -94 -110q8 -86 94 -86h325v-232h-327q-45 0 -75 -39t-36 -88q61 -96 107 -96l415 -2v-250h-542q-236 0 -265 305zM315 1358q0 43 29 71.5t72 28.5 q41 0 70.5 -28.5t29.5 -71.5q0 -41 -29.5 -71t-70.5 -30q-43 0 -72 30t-29 71zM623 1358q0 43 28.5 71.5t71.5 28.5q41 0 70.5 -28.5t29.5 -71.5q0 -41 -29.5 -71t-70.5 -30q-43 0 -71.5 30t-28.5 71z" />
<glyph unicode="&#xec;" horiz-adv-x="466" d="M51 1436l148 153l227 -366zM102 4h273v1145h-273v-1145z" />
<glyph unicode="&#xed;" horiz-adv-x="466" d="M51 1223l375 213l-145 153zM102 4h273v1145h-273v-1145z" />
<glyph unicode="&#xee;" horiz-adv-x="466" d="M-25 1245l269 344l268 -346l-268 121zM102 4h273v1145h-273v-1145z" />
<glyph unicode="&#xef;" horiz-adv-x="466" d="M-13 1358q0 43 29 71.5t72 28.5q41 0 70.5 -28.5t29.5 -71.5q0 -41 -29.5 -71t-70.5 -30q-43 0 -72 30t-29 71zM102 4h273v1145h-273v-1145zM295 1358q0 43 28.5 71.5t71.5 28.5q41 0 70.5 -28.5t29.5 -71.5q0 -41 -29.5 -71t-70.5 -30q-43 0 -71.5 30t-28.5 71z" />
<glyph unicode="&#xf0;" horiz-adv-x="991" d="M10 471v215h78v463h170h160q238 0 405.5 -168t167.5 -403q0 -238 -168 -408t-405 -170q-53 0 -160.5 2t-169.5 2v467h-78zM360 252q18 -4 58 -4q135 0 230 97t95 233q0 135 -95 230t-230 95q-68 0 -58 2v-219h82v-215h-82v-219z" />
<glyph unicode="&#xf1;" horiz-adv-x="989" d="M98 4v1145h273v-115q98 125 301 125q254 -55 254 -289v-866h-262v750q0 152 -121 151q-16 0 -29 -2q-143 -39 -143 -166v-733h-273zM256 1317l143 143h432l-143 -143h-432z" />
<glyph unicode="&#xf2;" horiz-adv-x="1230" d="M41 567q0 246 175 421t423 175q246 0 421 -175t175 -421q0 -248 -175 -423t-421 -175q-248 0 -423 175t-175 423zM317 567q0 -133 94.5 -227t227.5 -94q131 0 225 94t94 227q0 131 -94 225.5t-225 94.5q-133 0 -227.5 -94.5t-94.5 -225.5zM440 1436l148 153l227 -366z " />
<glyph unicode="&#xf3;" horiz-adv-x="1230" d="M41 567q0 246 175 421t423 175q246 0 421 -175t175 -421q0 -248 -175 -423t-421 -175q-248 0 -423 175t-175 423zM317 567q0 -133 94.5 -227t227.5 -94q131 0 225 94t94 227q0 131 -94 225.5t-225 94.5q-133 0 -227.5 -94.5t-94.5 -225.5zM440 1223l375 213l-145 153z " />
<glyph unicode="&#xf4;" horiz-adv-x="1230" d="M41 567q0 246 175 421t423 175q246 0 421 -175t175 -421q0 -248 -175 -423t-421 -175q-248 0 -423 175t-175 423zM317 567q0 -133 94.5 -227t227.5 -94q131 0 225 94t94 227q0 131 -94 225.5t-225 94.5q-133 0 -227.5 -94.5t-94.5 -225.5zM374 1245l269 344l268 -346 l-268 121z" />
<glyph unicode="&#xf5;" horiz-adv-x="1230" d="M41 567q0 246 175 421t423 175q246 0 421 -175t175 -421q0 -248 -175 -423t-421 -175q-248 0 -423 175t-175 423zM317 567q0 -133 94.5 -227t227.5 -94q131 0 225 94t94 227q0 131 -94 225.5t-225 94.5q-133 0 -227.5 -94.5t-94.5 -225.5zM379 1307l143 143h432 l-143 -143h-432z" />
<glyph unicode="&#xf6;" horiz-adv-x="1230" d="M41 567q0 246 175 421t423 175q246 0 421 -175t175 -421q0 -248 -175 -423t-421 -175q-248 0 -423 175t-175 423zM317 567q0 -133 94.5 -227t227.5 -94q131 0 225 94t94 227q0 131 -94 225.5t-225 94.5q-133 0 -227.5 -94.5t-94.5 -225.5zM383 1358q0 43 29 71.5t72 28.5 q41 0 70.5 -28.5t29.5 -71.5q0 -41 -29.5 -71t-70.5 -30q-43 0 -72 30t-29 71zM691 1358q0 43 28.5 71.5t71.5 28.5q41 0 70.5 -28.5t29.5 -71.5q0 -41 -29.5 -71t-70.5 -30q-43 0 -71.5 30t-28.5 71z" />
<glyph unicode="&#xf8;" horiz-adv-x="1302" d="M41 567q0 246 175 421t423 175q184 0 336 -104l106 106l150 -149l-105 -107q109 -154 109 -342q0 -248 -175 -423t-421 -175q-186 0 -338 105l-106 -107l-150 150l105 106q-109 154 -109 344zM317 571q0 -76 33 -143l426 428q-63 29 -133 31q-133 2 -228.5 -91.5 t-97.5 -224.5zM500 279q63 -31 133 -33q133 0 228 92t97 223q0 76 -32 144z" />
<glyph unicode="&#xf9;" horiz-adv-x="989" d="M94 283v866h260v-750q0 -152 123 -151q14 0 27 2q145 39 145 166v733h271v-1145h-271v115q-98 -125 -301 -125q-254 55 -254 289zM307 1436l148 153l227 -366z" />
<glyph unicode="&#xfa;" horiz-adv-x="989" d="M94 283v866h260v-750q0 -152 123 -151q14 0 27 2q145 39 145 166v733h271v-1145h-271v115q-98 -125 -301 -125q-254 55 -254 289zM327 1223l375 213l-145 153z" />
<glyph unicode="&#xfb;" horiz-adv-x="989" d="M94 283v866h260v-750q0 -152 123 -151q14 0 27 2q145 39 145 166v733h271v-1145h-271v115q-98 -125 -301 -125q-254 55 -254 289zM231 1245l269 344l268 -346l-268 121z" />
<glyph unicode="&#xfc;" horiz-adv-x="989" d="M94 283v866h260v-750q0 -152 123 -151q14 0 27 2q145 39 145 166v733h271v-1145h-271v115q-98 -125 -301 -125q-254 55 -254 289zM254 1358q0 43 29 71.5t72 28.5q41 0 70.5 -28.5t29.5 -71.5q0 -41 -29.5 -71t-70.5 -30q-43 0 -72 30t-29 71zM562 1358q0 43 28.5 71.5 t71.5 28.5q41 0 70.5 -28.5t29.5 -71.5q0 -41 -29.5 -71t-70.5 -30q-43 0 -71.5 30t-28.5 71z" />
<glyph unicode="&#xfd;" horiz-adv-x="1083" d="M53 1149h324l209 -330l207 330h325l-399 -619v-526h-270v533z" />
<glyph unicode="&#xfe;" horiz-adv-x="899" d="M96 4v1145h279v-205h270q170 0 246 -170q33 -72 43 -172q-4 -336 -279 -399h-286v-199h-273zM369 422h166q135 0 135 129q-10 127 -144 127h-157v-256z" />
<glyph unicode="&#xff;" horiz-adv-x="1083" d="M53 1149h324l209 -330l207 330h325l-399 -619v-526h-270v533zM335 1358q0 43 29 71.5t72 28.5q41 0 70.5 -28.5t29.5 -71.5q0 -41 -29.5 -71t-70.5 -30q-43 0 -72 30t-29 71zM643 1358q0 43 28.5 71.5t71.5 28.5q41 0 70.5 -28.5t29.5 -71.5q0 -41 -29.5 -71t-70.5 -30 q-43 0 -71.5 30t-28.5 71z" />
<glyph unicode="&#x152;" horiz-adv-x="2936" d="M205 539q0 412 291.5 703.5t705.5 291.5q395 0 684 -270q125 231 465 241h651v-260h-565q-123 0 -207 -65q-92 -72 -92 -191q0 -272 272 -270h426v-275l-380 -2q-129 0 -220.5 -96t-91.5 -227q0 -121 80 -187.5t203 -66.5q-4 0 575 -2v-273h-706q-256 0 -400 232 q-291 -281 -694 -281q-414 0 -705.5 292t-291.5 706zM496 539q0 -293 206.5 -500t499.5 -207t499 207t206 500q0 291 -206 497.5t-499 206.5t-499.5 -207t-206.5 -497z" />
<glyph unicode="&#x153;" horiz-adv-x="1761" d="M41 567q0 246 175 421t423 175q188 0 342 -108q74 92 160 94h563v-244h-412q-90 0 -94 -110q10 -86 94 -86h328v-232h-344q-86 0 -90 -127q61 -96 106 -96l412 -2v-250h-518q-119 0 -189 88q-160 -121 -358 -121q-248 0 -423 175t-175 423zM317 567q0 -133 94.5 -227 t227.5 -94q131 0 225 94t94 227q0 131 -94 225.5t-225 94.5q-133 0 -227.5 -94.5t-94.5 -225.5z" />
<glyph unicode="&#x178;" horiz-adv-x="1290" d="M8 1511h342l400 -684l405 684h340l-588 -974v-947h-315l-4 963z" />
<glyph unicode="&#x2c6;" d="M231 1245l269 344l268 -346l-268 121z" />
<glyph unicode="&#x2dc;" horiz-adv-x="989" d="M256 1307l143 143h432l-143 -143h-432z" />
<glyph unicode="&#x2000;" horiz-adv-x="940" />
<glyph unicode="&#x2001;" horiz-adv-x="1880" />
<glyph unicode="&#x2002;" horiz-adv-x="940" />
<glyph unicode="&#x2003;" horiz-adv-x="1880" />
<glyph unicode="&#x2004;" horiz-adv-x="626" />
<glyph unicode="&#x2005;" horiz-adv-x="470" />
<glyph unicode="&#x2006;" horiz-adv-x="313" />
<glyph unicode="&#x2007;" horiz-adv-x="313" />
<glyph unicode="&#x2008;" horiz-adv-x="235" />
<glyph unicode="&#x2009;" horiz-adv-x="376" />
<glyph unicode="&#x200a;" horiz-adv-x="104" />
<glyph unicode="&#x2010;" horiz-adv-x="759" d="M164 266v295l432 250v-297z" />
<glyph unicode="&#x2011;" horiz-adv-x="759" d="M164 266v295l432 250v-297z" />
<glyph unicode="&#x2012;" horiz-adv-x="759" d="M164 266v295l432 250v-297z" />
<glyph unicode="&#x2013;" horiz-adv-x="1138" d="M246 492v215h647v-215h-647z" />
<glyph unicode="&#x2014;" horiz-adv-x="1517" d="M328 492v215h862v-215h-862z" />
<glyph unicode="&#x2018;" horiz-adv-x="266" d="M82 1210l180 -110l127 411z" />
<glyph unicode="&#x2019;" horiz-adv-x="143" d="M82 1100l307 301l-182 110z" />
<glyph unicode="&#x201a;" horiz-adv-x="176" d="M80 -129l307 301l-182 111z" />
<glyph unicode="&#x201c;" horiz-adv-x="577" d="M86 1210l180 -110l127 411zM393 1210l180 -110l127 411z" />
<glyph unicode="&#x201d;" horiz-adv-x="778" d="M84 1100l307 301l-182 110zM391 1100l307 301l-182 110z" />
<glyph unicode="&#x201e;" horiz-adv-x="778" d="M82 -121l307 301l-182 110zM389 -121l307 301l-182 110z" />
<glyph unicode="&#x2022;" horiz-adv-x="636" d="M102 596q0 90 63.5 153.5t151.5 63.5t153 -64.5t65 -152.5t-62.5 -149.5t-150.5 -61.5q-90 0 -155 61.5t-65 149.5z" />
<glyph unicode="&#x2026;" horiz-adv-x="1198" d="M82 0v215h215v-215h-215zM492 0v215h215v-215h-215zM901 0v215h215v-215h-215z" />
<glyph unicode="&#x202f;" horiz-adv-x="376" />
<glyph unicode="&#x2039;" horiz-adv-x="722" d="M102 598l519 403l-181 -405l178 -401z" />
<glyph unicode="&#x203a;" horiz-adv-x="722" d="M102 195l519 403l-519 403l181 -405z" />
<glyph unicode="&#x205f;" horiz-adv-x="470" />
<glyph unicode="&#x2122;" horiz-adv-x="677" d="M280 -68l555 1342l177 -74l-555 -1341zM913 238v389h176v-227h92v227h176v-227h76v-162h-76v-244h-176v244h-268z" />
<glyph unicode="&#x25fc;" horiz-adv-x="1146" d="M0 0v1147h1147v-1147h-1147z" />
</font>
</defs>
</svg>
